<?xml version="1.0" standalone="no"?>
<!DOCTYPE svg PUBLIC "-//W3C//DTD SVG 20010904//EN"
 "http://www.w3.org/TR/2001/REC-SVG-20010904/DTD/svg10.dtd">
<svg version="1.0" xmlns="http://www.w3.org/2000/svg"
 width="600.000000pt" height="173.000000pt" viewBox="0 0 600.000000 173.000000"
 preserveAspectRatio="xMidYMid meet">
<metadata>
Created by potrace 1.16, written by Peter Selinger 2001-2019
</metadata>
<g transform="translate(0.000000,173.000000) scale(0.100000,-0.100000)"
fill="#000000" stroke="none">
<path d="M0 1100 l0 -630 470 0 470 0 0 155 0 155 -310 0 -310 0 0 475 0 475
-160 0 -160 0 0 -630z"/>
<path d="M945 1657 c-59 -129 -79 -223 -79 -382 -1 -160 13 -226 71 -345 28
-58 56 -95 123 -162 77 -76 101 -93 201 -142 117 -57 237 -94 394 -120 102
-18 419 -40 441 -32 12 5 14 100 14 631 l0 625 -165 0 -165 0 0 -456 0 -456
-55 7 c-84 10 -231 52 -301 86 -90 43 -174 123 -210 201 -25 56 -28 74 -28
163 0 161 54 297 162 408 l46 47 -208 0 -207 0 -34 -73z"/>
<path d="M2465 1702 c-68 -33 -127 -92 -159 -161 -30 -66 -29 -187 3 -254 43
-88 103 -130 432 -299 167 -86 304 -163 304 -170 0 -10 -75 -14 -382 -16
l-383 -2 0 -166 0 -165 468 3 467 3 56 26 c191 90 250 340 116 486 -58 64
-110 95 -424 255 -155 80 -272 145 -270 152 3 8 100 12 345 14 l342 2 0 160 0
160 -427 0 -428 0 -60 -28z m881 -1141 c-9 -10 -45 -32 -79 -47 l-62 -29 -455
0 -455 0 -3 48 -3 47 537 0 c526 0 537 0 520 -19z"/>
<path d="M3560 1100 l0 -630 550 0 550 0 0 150 0 150 -385 0 -385 0 0 90 0 90
240 0 240 0 0 150 0 150 -240 0 -240 0 0 90 0 90 385 0 385 0 0 150 0 150
-550 0 -550 0 0 -630z"/>
<path d="M5245 1723 c-178 -38 -354 -178 -434 -345 -47 -100 -61 -161 -61
-276 0 -182 55 -309 189 -443 92 -93 179 -143 291 -170 77 -18 231 -16 310 5
127 34 254 121 336 229 89 118 124 225 124 382 0 189 -48 303 -185 440 -140
140 -251 186 -445 184 -58 -1 -114 -3 -125 -6z m257 -340 c58 -26 124 -92 151
-152 34 -72 31 -188 -6 -263 -30 -61 -74 -105 -140 -140 -61 -33 -203 -33
-265 0 -58 31 -114 88 -143 148 -35 72 -34 189 3 260 34 65 117 140 177 159
61 20 163 14 223 -12z"/>
<path d="M4302 138 l2 -143 3 137 4 138 847 3 847 2 -852 3 -853 2 2 -142z"/>
<path d="M1939 242 c-58 -51 -57 -163 1 -214 35 -32 101 -38 137 -13 19 13 22
13 27 0 3 -8 12 -15 21 -15 12 0 15 14 15 75 l0 75 -60 0 c-53 0 -60 -2 -60
-20 0 -17 7 -20 40 -20 46 0 50 -11 15 -45 -24 -24 -57 -31 -90 -19 -21 8 -45
56 -45 89 0 33 24 81 45 89 44 16 105 -4 105 -35 0 -5 11 -9 25 -9 29 0 30 2
10 40 -20 39 -43 50 -104 50 -41 0 -56 -5 -82 -28z"/>
<path d="M2410 135 c0 -128 1 -135 20 -135 18 0 20 7 20 55 l0 55 54 0 c59 0
66 -8 66 -77 0 -30 3 -33 30 -33 29 0 40 13 20 25 -5 3 -10 26 -10 50 0 24 -4
47 -10 50 -6 4 -4 17 6 36 12 24 13 37 4 64 -14 42 -23 45 -121 45 l-79 0 0
-135z"/>
<path d="M2929 255 c-58 -31 -77 -135 -36 -196 27 -41 60 -59 107 -59 128 0
177 168 74 249 -32 25 -105 28 -145 6z m130 -51 c31 -39 29 -107 -4 -139 -55
-55 -135 -15 -135 68 0 62 29 97 80 97 30 0 43 -6 59 -26z"/>
<path d="M3382 159 c3 -107 4 -112 31 -135 33 -28 92 -32 136 -9 38 19 41 30
41 151 0 97 -1 104 -20 104 -19 0 -20 -7 -20 -93 0 -107 -13 -137 -60 -137
-51 0 -60 20 -60 131 l0 99 -26 0 -26 0 4 -111z"/>
<path d="M3860 135 l0 -135 25 0 c24 0 25 3 25 55 l0 55 50 0 c64 0 100 30
100 85 0 59 -26 75 -120 75 l-80 0 0 -135z"/>
</g>
</svg>
